<mxfile host="app.diagrams.net" modified="2020-06-29T16:35:58.264Z" agent="5.0 (Macintosh; Intel Mac OS X 10_15_5) AppleWebKit/537.36 (KHTML, like Gecko) Chrome/83.0.4103.116 Safari/537.36" etag="iLiV9o3fslC4M0yGM-MP" version="13.3.5" type="github">
  <diagram id="NlnzgE1EkQzuRRvwMHye" name="Page-1">
    <mxGraphModel dx="1426" dy="653" grid="1" gridSize="10" guides="1" tooltips="1" connect="1" arrows="1" fold="1" page="1" pageScale="1" pageWidth="850" pageHeight="1100" math="0" shadow="0">
      <root>
        <mxCell id="0" />
        <mxCell id="1" parent="0" />
        <mxCell id="2Xq4Qbi9GRLl1_cFJ8ow-17" value="" style="rounded=0;whiteSpace=wrap;html=1;" parent="1" vertex="1">
          <mxGeometry x="20" y="50" width="710" height="420" as="geometry" />
        </mxCell>
        <mxCell id="2Xq4Qbi9GRLl1_cFJ8ow-11" value="" style="rounded=1;whiteSpace=wrap;html=1;fillColor=#f5f5f5;strokeColor=#666666;fontColor=#333333;dashed=1;" parent="1" vertex="1">
          <mxGeometry x="229.76" y="72.5" width="370" height="90" as="geometry" />
        </mxCell>
        <mxCell id="2Xq4Qbi9GRLl1_cFJ8ow-2" value="&lt;b&gt;Eureka service registry&lt;/b&gt;&lt;br&gt;localhost:8761" style="rounded=0;whiteSpace=wrap;html=1;fillColor=#f8cecc;strokeColor=#b85450;" parent="1" vertex="1">
          <mxGeometry x="324.76" y="212.5" width="180" height="60" as="geometry" />
        </mxCell>
        <mxCell id="2Xq4Qbi9GRLl1_cFJ8ow-3" value="&lt;b&gt;svc-payroll-management service&lt;/b&gt;&lt;br&gt;localhost:11066" style="rounded=0;whiteSpace=wrap;html=1;fillColor=#dae8fc;strokeColor=#6c8ebf;" parent="1" vertex="1">
          <mxGeometry x="314.76" y="337.5" width="200" height="102.5" as="geometry" />
        </mxCell>
        <mxCell id="2Xq4Qbi9GRLl1_cFJ8ow-6" value="" style="endArrow=classic;html=1;" parent="1" source="2Xq4Qbi9GRLl1_cFJ8ow-4" target="2Xq4Qbi9GRLl1_cFJ8ow-2" edge="1">
          <mxGeometry width="50" height="50" relative="1" as="geometry">
            <mxPoint x="429.76" y="347.5" as="sourcePoint" />
            <mxPoint x="479.76" y="297.5" as="targetPoint" />
          </mxGeometry>
        </mxCell>
        <mxCell id="2Xq4Qbi9GRLl1_cFJ8ow-7" value="" style="endArrow=classic;html=1;" parent="1" source="2Xq4Qbi9GRLl1_cFJ8ow-5" target="2Xq4Qbi9GRLl1_cFJ8ow-2" edge="1">
          <mxGeometry width="50" height="50" relative="1" as="geometry">
            <mxPoint x="579.76" y="227.5" as="sourcePoint" />
            <mxPoint x="629.76" y="177.5" as="targetPoint" />
          </mxGeometry>
        </mxCell>
        <mxCell id="2Xq4Qbi9GRLl1_cFJ8ow-8" value="" style="endArrow=classic;html=1;" parent="1" source="2Xq4Qbi9GRLl1_cFJ8ow-3" target="2Xq4Qbi9GRLl1_cFJ8ow-2" edge="1">
          <mxGeometry width="50" height="50" relative="1" as="geometry">
            <mxPoint x="379.76" y="487.5" as="sourcePoint" />
            <mxPoint x="429.76" y="437.5" as="targetPoint" />
          </mxGeometry>
        </mxCell>
        <mxCell id="2Xq4Qbi9GRLl1_cFJ8ow-10" value="&lt;b&gt;DB&lt;/b&gt;" style="shape=cylinder;whiteSpace=wrap;html=1;boundedLbl=1;backgroundOutline=1;fillColor=#f5f5f5;strokeColor=#666666;fontColor=#333333;" parent="1" vertex="1">
          <mxGeometry x="79.75999999999999" y="177.5" width="60" height="80" as="geometry" />
        </mxCell>
        <mxCell id="2Xq4Qbi9GRLl1_cFJ8ow-15" style="edgeStyle=orthogonalEdgeStyle;rounded=1;orthogonalLoop=1;jettySize=auto;html=1;exitX=0;exitY=0.5;exitDx=0;exitDy=0;entryX=0.5;entryY=1;entryDx=0;entryDy=0;startArrow=classic;startFill=1;endArrow=classic;endFill=1;" parent="1" source="2Xq4Qbi9GRLl1_cFJ8ow-3" target="2Xq4Qbi9GRLl1_cFJ8ow-10" edge="1">
          <mxGeometry relative="1" as="geometry" />
        </mxCell>
        <mxCell id="2Xq4Qbi9GRLl1_cFJ8ow-12" value="" style="endArrow=classic;html=1;edgeStyle=orthogonalEdgeStyle;exitX=0.5;exitY=0;exitDx=0;exitDy=0;entryX=0;entryY=0.5;entryDx=0;entryDy=0;endFill=1;startArrow=classic;startFill=1;" parent="1" source="2Xq4Qbi9GRLl1_cFJ8ow-10" target="2Xq4Qbi9GRLl1_cFJ8ow-11" edge="1">
          <mxGeometry width="50" height="50" relative="1" as="geometry">
            <mxPoint x="429.76" y="347.5" as="sourcePoint" />
            <mxPoint x="479.76" y="297.5" as="targetPoint" />
          </mxGeometry>
        </mxCell>
        <mxCell id="2Xq4Qbi9GRLl1_cFJ8ow-4" value="&lt;b&gt;svc-lookup serveric&lt;/b&gt;&lt;br&gt;localhost:8001" style="rounded=0;whiteSpace=wrap;html=1;fillColor=#dae8fc;strokeColor=#6c8ebf;" parent="1" vertex="1">
          <mxGeometry x="269.76" y="87.5" width="120" height="60" as="geometry" />
        </mxCell>
        <mxCell id="2Xq4Qbi9GRLl1_cFJ8ow-5" value="&lt;b&gt;svc-lookup serveric&lt;/b&gt;&lt;br&gt;localhost:8002" style="rounded=0;whiteSpace=wrap;html=1;fillColor=#dae8fc;strokeColor=#6c8ebf;" parent="1" vertex="1">
          <mxGeometry x="439.76" y="87.5" width="120" height="60" as="geometry" />
        </mxCell>
        <mxCell id="2Xq4Qbi9GRLl1_cFJ8ow-20" value="Dashboard" style="shape=image;imageAspect=0;aspect=fixed;verticalLabelPosition=bottom;verticalAlign=top;image=https://i.stack.imgur.com/Sa2cD.png;" parent="1" vertex="1">
          <mxGeometry x="544.76" y="204.375" width="125.48" height="76.25" as="geometry" />
        </mxCell>
        <mxCell id="2Xq4Qbi9GRLl1_cFJ8ow-21" value="" style="endArrow=classic;html=1;" parent="1" source="2Xq4Qbi9GRLl1_cFJ8ow-2" target="2Xq4Qbi9GRLl1_cFJ8ow-20" edge="1">
          <mxGeometry width="50" height="50" relative="1" as="geometry">
            <mxPoint x="464.76" y="280" as="sourcePoint" />
            <mxPoint x="514.76" y="230" as="targetPoint" />
          </mxGeometry>
        </mxCell>
        <mxCell id="2Xq4Qbi9GRLl1_cFJ8ow-23" value="cpx_svc_lookup&lt;br&gt;-lookup" style="text;html=1;resizable=0;autosize=1;align=left;verticalAlign=middle;points=[];fillColor=none;strokeColor=none;rounded=0;dashed=1;" parent="1" vertex="1">
          <mxGeometry x="129.76" y="135" width="100" height="30" as="geometry" />
        </mxCell>
        <mxCell id="2Xq4Qbi9GRLl1_cFJ8ow-24" value="cpx_svc_payroll_management&lt;br&gt;-payroll_management_credit_validation&lt;br&gt;cpx_svc_payroll_management_camunda&lt;br&gt;-workflow" style="text;html=1;resizable=0;autosize=1;align=left;verticalAlign=middle;points=[];fillColor=none;strokeColor=none;rounded=0;dashed=1;" parent="1" vertex="1">
          <mxGeometry x="129.76" y="275" width="230" height="60" as="geometry" />
        </mxCell>
        <mxCell id="Q7N5ts5h1uja4mIRB9ij-1" value="lookup-helper" style="rounded=0;whiteSpace=wrap;html=1;dashed=1;" vertex="1" parent="1">
          <mxGeometry x="429.76" y="410" width="85" height="30" as="geometry" />
        </mxCell>
        <mxCell id="Q7N5ts5h1uja4mIRB9ij-2" value="&lt;font style=&quot;font-size: 10px&quot;&gt;&lt;b&gt;Library&lt;/b&gt;&lt;/font&gt;" style="text;html=1;resizable=0;autosize=1;align=center;verticalAlign=middle;points=[];fillColor=none;strokeColor=none;rounded=0;dashed=1;" vertex="1" parent="1">
          <mxGeometry x="379.76" y="420" width="50" height="20" as="geometry" />
        </mxCell>
      </root>
    </mxGraphModel>
  </diagram>
</mxfile>
